0
SECTION
2
HEADER
9
$INSUNITS
70
4
9
$ACADVER
1
AC1014
9
$HANDSEED
5
FFFF
0
ENDSEC
0
SECTION
2
TABLES
0
TABLE
2
VPORT
5
8
100
AcDbSymbolTable
0
ENDTAB
0
TABLE
2
LTYPE
5
5
100
AcDbSymbolTable
0
LTYPE
5
14
100
AcDbSymbolTableRecord
100
AcDbLinetypeTableRecord
2
BYBLOCK
70
0
0
LTYPE
5
15
100
AcDbSymbolTableRecord
100
AcDbLinetypeTableRecord
2
BYLAYER
70
0
0
ENDTAB
0
TABLE
2
LAYER
5
2
100
AcDbSymbolTable
70
2
0
LAYER
5
50
100
AcDbSymbolTableRecord
100
AcDbLayerTableRecord
2
0
70
0
6
CONTINUOUS
0
ENDTAB
0
TABLE
2
STYLE
5
3
100
AcDbSymbolTable
70
1
0
STYLE
5
11
100
AcDbSymbolTableRecord
100
AcDbTextStyleTableRecord
2
STANDARD
70
0
0
ENDTAB
0
TABLE
2
VIEW
5
6
100
AcDbSymbolTable
70
0
0
ENDTAB
0
TABLE
2
UCS
5
7
100
AcDbSymbolTable
70
0
0
ENDTAB
0
TABLE
2
APPID
5
9
100
AcDbSymbolTable
70
2
0
APPID
5
12
100
AcDbSymbolTableRecord
100
AcDbRegAppTableRecord
2
ACAD
70
0
0
ENDTAB
0
TABLE
2
DIMSTYLE
5
A
100
AcDbSymbolTable
70
1
0
ENDTAB
0
TABLE
2
BLOCK_RECORD
5
1
100
AcDbSymbolTable
70
1
0
BLOCK_RECORD
5
1F
100
AcDbSymbolTableRecord
100
AcDbBlockTableRecord
2
*MODEL_SPACE
0
BLOCK_RECORD
5
1B
100
AcDbSymbolTableRecord
100
AcDbBlockTableRecord
2
*PAPER_SPACE
0
ENDTAB
0
ENDSEC
0
SECTION
2
BLOCKS
0
BLOCK
5
20
100
AcDbEntity
100
AcDbBlockBegin
2
*MODEL_SPACE
0
ENDBLK
5
21
100
AcDbEntity
100
AcDbBlockEnd
0
BLOCK
5
1C
100
AcDbEntity
100
AcDbBlockBegin
2
*PAPER_SPACE
0
ENDBLK
5
1D
100
AcDbEntity
100
AcDbBlockEnd
0
ENDSEC
0
SECTION
2
ENTITIES
0
LWPOLYLINE
5
100
100
AcDbEntity
8
0
100
AcDbPolyline
90
4
70
1
43
0.0
10
-87.642788286391792
20
75.202055316034702
42
-0.99999999999999989
10
-86.940924128386513
20
72.28531283447974
10
-89.371542863015705
20
71.700426036142005
42
-0.99999999999999989
10
-90.073407021020984
20
74.617168517696996
0
LINE
5
101
100
AcDbEntity
8
0
100
AcDbLine
10
63.751769035157039
20
70.364416834112305
30
0
11
21.892684564088391
21
42.240546752701775
31
0
0
ARC
5
102
100
AcDbEntity
8
0
100
AcDbCircle
10
-88.788339717434496
20
63.342478187996996
30
0
40
4.9999999999999938
100
AcDbArc
50
54.134159140086993
51
96.967587206154533
0
ARC
5
103
100
AcDbEntity
8
0
100
AcDbCircle
10
-62.078708602147216
20
72.854571204326533
30
0
40
2.999999999999996
100
AcDbArc
50
118.47641708031611
51
236.10402421656116
0
ARC
5
104
100
AcDbEntity
8
0
100
AcDbCircle
10
-92.15586628577509
20
84.28668418420321
30
0
40
4.9999999999999538
100
AcDbArc
50
-35.86584085991359
51
6.9675872061540076
0
ARC
5
105
100
AcDbEntity
8
0
100
AcDbCircle
10
-84.094207591865725
20
92.512675612674528
30
0
40
3.9999999999999911
100
AcDbArc
50
20.092442943422274
51
186.96758720615406
0
ARC
5
106
100
AcDbEntity
8
0
100
AcDbCircle
10
-80.000000003501697
20
75.498344470270425
30
0
40
10.000000000000007
100
AcDbArc
50
144.13415914008712
51
152.92587100948973
0
LINE
5
107
100
AcDbEntity
8
0
100
AcDbLine
10
69.926592985982438
20
76.379520422843811
30
0
11
72.35721172061163
21
75.794633624506076
31
0
0
LWPOLYLINE
5
108
100
AcDbEntity
8
0
100
AcDbPolyline
90
4
70
1
43
0.0
10
83.213031639292382
20
82.439268595155198
10
83.797918437630102
20
84.869887329784447
42
0.99999999999999989
10
80.881175956075126
20
85.571751487789683
10
80.296289157737419
20
83.141132753160548
42
0.99999999999999989
0
LINE
5
109
100
AcDbEntity
8
0
100
AcDbLine
10
91.638596977190701
20
77.629790102707943
30
0
11
98.388474462997593
21
75.160695166306013
31
0
0
LWPOLYLINE
5
110
100
AcDbEntity
8
0
100
AcDbPolyline
90
4
70
1
43
0.0
10
-80.296289157737419
20
83.14113275316052
42
-0.99999999999999989
10
-83.213031639292367
20
82.439268595155241
10
-83.797918437630102
20
84.869887329784447
42
-0.99999999999999989
10
-80.881175956075126
20
85.571751487789683
0
ARC
5
111
100
AcDbEntity
8
0
100
AcDbCircle
10
-70.27752506498507
20
77.837891663621292
30
0
40
1.4999999999999967
100
AcDbArc
50
-76.469984925211619
51
103.53001507478825
0
ARC
5
112
100
AcDbEntity
8
0
100
AcDbCircle
10
70.979954353102073
20
87.483284038941846
30
0
40
5.0000000000000044
100
AcDbArc
50
264.13224058597774
51
306.96566865204522
0
ARC
5
113
100
AcDbEntity
8
0
100
AcDbCircle
10
-13.5
20
40
30
0
40
3.5000000000000009
100
AcDbArc
50
0
51
131.24830625104877
0
ARC
5
114
100
AcDbEntity
8
0
100
AcDbCircle
10
72.708143799614234
20
77.253004865283572
30
0
40
1.5000000000000009
100
AcDbArc
50
-103.53001507478722
51
76.469984925211747
0
LINE
5
115
100
AcDbEntity
8
0
100
AcDbLine
10
-73.250786158528143
20
65.180975015083831
30
0
11
-19.658447544197386
21
29.173881510921479
31
0
0
LWPOLYLINE
5
116
100
AcDbEntity
8
0
100
AcDbPolyline
90
4
70
1
43
0.0
10
87.642788286391806
20
75.202055316034702
10
90.073407021020984
20
74.617168517696967
42
-0.99999999999999989
10
89.371542863015705
20
71.700426036142034
10
86.940924128386541
20
72.285312834479697
42
-0.99999999999999989
0
ARC
5
117
100
AcDbEntity
8
0
100
AcDbCircle
10
-70.979954353102073
20
87.483284038941846
30
0
40
4.9999999999999902
100
AcDbArc
50
233.03433134795506
51
275.86775941402243
0
ARC
5
118
100
AcDbEntity
8
0
100
AcDbCircle
10
-80.000000003501697
20
75.498344470270425
30
0
40
10.000000000000007
100
AcDbArc
50
53.03433134795506
51
62.925871009489732
0
ARC
5
119
100
AcDbEntity
8
0
100
AcDbCircle
10
-73.172856515564646
20
88.85462059032406
30
0
40
4.999999999999905
100
AcDbArc
50
200.09244294342193
51
242.9258710094899
0
CIRCLE
5
120
100
AcDbEntity
8
0
100
AcDbCircle
10
-80.000000003501697
20
75.498344470270425
30
0
40
2.9999999999999982
0
ARC
5
121
100
AcDbEntity
8
0
100
AcDbCircle
10
-72.70814379961422
20
77.253004865283572
30
0
40
1.4999999999999878
100
AcDbArc
50
103.53001507478838
51
283.53001507478837
0
ARC
5
122
100
AcDbEntity
8
0
100
AcDbCircle
10
88.788339717434496
20
63.342478187996996
30
0
40
5.0000000000000036
100
AcDbArc
50
83.032412793845481
51
125.86584085991288
0
ARC
5
123
100
AcDbEntity
8
0
100
AcDbCircle
10
70.27752506498507
20
77.837891663621292
30
0
40
1.5000000000000049
100
AcDbArc
50
76.469984925211747
51
256.46998492521163
0
LINE
5
124
100
AcDbEntity
8
0
100
AcDbLine
10
-89.39487887082592
20
68.305552865593853
30
0
11
-96.529099823192723
21
67.433677139828859
31
0
0
LINE
5
125
100
AcDbEntity
8
0
100
AcDbLine
10
80.337649307466066
20
93.886818929766278
30
0
11
77.868554371064192
21
87.136941443959415
31
0
0
ARC
5
126
100
AcDbEntity
8
0
100
AcDbCircle
10
-76.03922021354451
20
61.03071773139348
30
0
40
5.0000000000000018
100
AcDbArc
50
56.104024216561299
51
105.31062926835797
0
ARC
5
127
100
AcDbEntity
8
0
100
AcDbCircle
10
-97.014331145905828
20
71.404136881906354
30
0
40
4.0000000000000036
100
AcDbArc
50
110.09244294342248
51
276.96758720615401
0
CIRCLE
5
128
100
AcDbEntity
8
0
100
AcDbCircle
10
80.000000003501697
20
75.498344470270425
30
0
40
3.0000000000000071
0
LINE
5
129
100
AcDbEntity
8
0
100
AcDbLine
10
70.628457143987703
20
79.296262904398787
30
0
11
73.059075900348276
21
78.711376100831785
31
0
0
LINE
5
130
100
AcDbEntity
8
0
100
AcDbLine
10
87.192791608178268
20
84.893223337594591
30
0
11
88.064667333943291
21
92.027444289961409
31
0
0
CIRCLE
5
131
100
AcDbEntity
8
0
100
AcDbCircle
10
-13.5
20
26
30
0
40
1.4999999999999991
0
LINE
5
132
100
AcDbEntity
8
0
100
AcDbLine
10
89.39487887082592
20
68.305552865593853
30
0
11
96.529099823192709
21
67.433677139828859
31
0
0
CIRCLE
5
133
100
AcDbEntity
8
0
100
AcDbCircle
10
-13.5
20
40
30
0
40
1.4999999999999991
0
CIRCLE
5
134
100
AcDbEntity
8
0
100
AcDbCircle
10
13.5
20
40
30
0
40
1.4999999999999991
0
LINE
5
135
100
AcDbEntity
8
0
100
AcDbLine
10
-63.751769035157047
20
70.364416834112319
30
0
11
-21.892684564088391
21
42.240546752701775
31
0
0
ARC
5
136
100
AcDbEntity
8
0
100
AcDbCircle
10
-65.416287595726786
20
79.007665260296761
30
0
40
3.9999999999999902
100
AcDbArc
50
-61.523582919684259
51
95.867759414022402
0
ARC
5
137
100
AcDbEntity
8
0
100
AcDbCircle
10
80.000000003501697
20
75.498344470270425
30
0
40
10.000000000000007
100
AcDbArc
50
117.07412899051039
51
126.96566865204481
0
ARC
5
138
100
AcDbEntity
8
0
100
AcDbCircle
10
-80.000000003501697
20
75.498344470270425
30
0
40
10.000000000000007
100
AcDbArc
50
234.13415914008687
51
285.31062926835784
0
ARC
5
139
100
AcDbEntity
8
0
100
AcDbCircle
10
97.014331145905828
20
71.404136881906354
30
0
40
4.0000000000000009
100
AcDbArc
50
-96.967587206154221
51
69.907557056577517
0
LINE
5
140
100
AcDbEntity
8
0
100
AcDbLine
10
-69.926592985982438
20
76.379520422843811
30
0
11
-72.357211742343011
21
75.79463361927678
31
0
0
ARC
5
141
100
AcDbEntity
8
0
100
AcDbCircle
10
84.094207591865725
20
92.512675612674528
30
0
40
3.9999999999999987
100
AcDbArc
50
-6.9675872061540636
51
159.90755705657773
0
LINE
5
142
100
AcDbEntity
8
0
100
AcDbLine
10
-73.059075878616852
20
78.711376106061053
30
0
11
-70.628457143987703
21
79.296262904398787
31
0
0
CIRCLE
5
143
100
AcDbEntity
8
0
100
AcDbCircle
10
13.5
20
26
30
0
40
1.4999999999999991
0
LINE
5
144
100
AcDbEntity
8
0
100
AcDbLine
10
70.468790368538166
20
82.509481531716133
30
0
11
65.82521878337792
21
82.986707266077318
31
0
0
ARC
5
145
100
AcDbEntity
8
0
100
AcDbCircle
10
73.172856515564618
20
88.854620590324117
30
0
40
4.9999999999999307
100
AcDbArc
50
297.07412899050985
51
339.90755705657762
0
LINE
5
146
100
AcDbEntity
8
0
100
AcDbLine
10
-6.7917957343005542
20
25.00000037252903
30
0
11
6.7917957343005542
21
25.000000372529037
31
0
0
ARC
5
147
100
AcDbEntity
8
0
100
AcDbCircle
10
19.104250509072013
20
46.390804036392154
30
0
40
4.9999999999999982
100
AcDbArc
50
228.75169374895111
51
303.89597578343864
0
ARC
5
148
100
AcDbEntity
8
0
100
AcDbCircle
10
80.000000003501697
20
75.498344470270425
30
0
40
9.9999999999999929
100
AcDbArc
50
27.074128990510271
51
35.865840859913078
0
ARC
5
149
100
AcDbEntity
8
0
100
AcDbCircle
10
-93.356276123555432
20
82.325487958207546
30
0
40
5.0000000000000018
100
AcDbArc
50
290.09244294342261
51
332.92587100948981
0
ARC
5
150
100
AcDbEntity
8
0
100
AcDbCircle
10
76.03922021354451
20
61.03071773139348
30
0
40
5.0000000000000009
100
AcDbArc
50
74.689370731641972
51
123.89597578343884
0
LINE
5
151
100
AcDbEntity
8
0
100
AcDbLine
10
-91.638596977190701
20
77.629790102707943
30
0
11
-98.388474462997593
21
75.160695166306013
31
0
0
ARC
5
152
100
AcDbEntity
8
0
100
AcDbCircle
10
6.7917957343005533
20
20.000000372529033
30
0
40
5.0000000000000018
100
AcDbArc
50
41.810311713952146
51
89.999999999999986
0
ARC
5
153
100
AcDbEntity
8
0
100
AcDbCircle
10
-19.104250509072013
20
46.390804036392154
30
0
40
5.0000000000000044
100
AcDbArc
50
236.10402421656138
51
311.24830625104875
0
SPLINE
5
154
100
AcDbEntity
8
0
100
AcDbSpline
70
1064
71
5
72
21
73
15
74
0
42
0.000000001
43
0.0000000001
44
0.0000000001
40
0
40
0
40
0
40
0
40
0
40
0
40
0.10000000000000001
40
0.20000000000000001
40
0.30000000000000004
40
0.40000000000000002
40
0.5
40
0.59999999999999998
40
0.69999999999999996
40
0.79999999999999982
40
0.8999999999999998
40
1
40
1
40
1
40
1
40
1
40
1
10
10
20
40
30
0
10
10.000000026055027
20
39.300590789455903
30
0
10
9.9782746833715539
20
38.021595807292492
30
0
10
9.8805186152211864
20
36.462533754807048
30
0
10
9.6296959089161795
20
35.042756774481802
30
0
10
9.1614238926572806
20
34.047462389631107
30
0
10
8.5806722545592642
20
33.455582736592561
30
0
10
7.9040319132341157
20
32.927700630405631
30
0
10
7.0972705482357812
20
32.26396365758827
30
0
10
6.058897853012839
20
31.477142313250035
30
0
10
4.651916821616231
20
30.698293039831128
30
0
10
3.1146715723833651
20
30.229922830486771
30
0
10
1.6754097973114848
20
30.041805255219639
30
0
10
0.58096125617790406
20
30.000000447034839
30
0
10
0
20
30.000000447034839
30
0
0
LINE
5
155
100
AcDbEntity
8
0
100
AcDbLine
10
-88.064667333943291
20
92.027444289961409
30
0
11
-87.192791608178212
21
84.893223337594591
31
0
0
ARC
5
156
100
AcDbEntity
8
0
100
AcDbCircle
10
13.5
20
26
30
0
40
3.9999999999999991
100
AcDbArc
50
221.8103117139521
51
353.77194118992242
0
LINE
5
157
100
AcDbEntity
8
0
100
AcDbLine
10
-77.868554371064192
20
87.136941443959415
30
0
11
-80.337649307466023
21
93.886818929766292
31
0
0
ARC
5
158
100
AcDbEntity
8
0
100
AcDbCircle
10
65.416287595726786
20
79.007665260296761
30
0
40
3.9999999999999853
100
AcDbArc
50
84.132240585977584
51
241.52358291968415
0
ARC
5
159
100
AcDbEntity
8
0
100
AcDbCircle
10
22.446881599213771
20
25.02362422723111
30
0
40
4.9999999999999982
100
AcDbArc
50
123.89597578343884
51
173.77194118992239
0
LINE
5
160
100
AcDbEntity
8
0
100
AcDbLine
10
-65.82521878337792
20
82.986707266077332
30
0
11
-70.468790368538151
21
82.509481531716148
31
0
0
ARC
5
161
100
AcDbEntity
8
0
100
AcDbCircle
10
93.356276123555503
20
82.325487958207603
30
0
40
5.0000000000000622
100
AcDbArc
50
207.0741289905105
51
249.90755705657685
0
LINE
5
162
100
AcDbEntity
8
0
100
AcDbLine
10
19.658447544197383
20
29.173881510921468
30
0
11
73.250786158528129
21
65.180975015083831
31
0
0
ARC
5
163
100
AcDbEntity
8
0
100
AcDbCircle
10
13.5
20
40
30
0
40
3.5000000000000004
100
AcDbArc
50
48.751693748951531
51
180
0
SPLINE
5
164
100
AcDbEntity
8
0
100
AcDbSpline
70
1064
71
5
72
21
73
15
74
0
42
0.000000001
43
0.0000000001
44
0.0000000001
40
-1
40
-1
40
-1
40
-1
40
-1
40
-1
40
-0.8999999999999998
40
-0.79999999999999982
40
-0.69999999999999996
40
-0.59999999999999998
40
-0.5
40
-0.40000000000000002
40
-0.30000000000000004
40
-0.20000000000000001
40
-0.10000000000000001
40
0
40
0
40
0
40
0
40
0
40
0
10
0
20
30.000000447034839
30
0
10
-0.58096125617790406
20
30.000000447034839
30
0
10
-1.6754097973114848
20
30.041805255219639
30
0
10
-3.1146715723833651
20
30.229922830486771
30
0
10
-4.651916821616231
20
30.698293039831128
30
0
10
-6.058897853012839
20
31.477142313250035
30
0
10
-7.0972705482357812
20
32.26396365758827
30
0
10
-7.9040319132341157
20
32.927700630405631
30
0
10
-8.5806722545592642
20
33.455582736592561
30
0
10
-9.1614238926572806
20
34.047462389631107
30
0
10
-9.6296959089161795
20
35.042756774481802
30
0
10
-9.8805186152211864
20
36.462533754807048
30
0
10
-9.9782746833715539
20
38.021595807292492
30
0
10
-10.000000026055027
20
39.300590789455903
30
0
10
-10
20
40
30
0
0
ARC
5
165
100
AcDbEntity
8
0
100
AcDbCircle
10
80.000000003501697
20
75.498344470270425
30
0
40
9.9999999999999982
100
AcDbArc
50
254.68937073164221
51
305.86584085991319
0
ARC
5
166
100
AcDbEntity
8
0
100
AcDbCircle
10
92.155866285775147
20
84.28668418420321
30
0
40
5.0000000000000009
100
AcDbArc
50
173.03241279384599
51
215.86584085991282
0
ARC
5
167
100
AcDbEntity
8
0
100
AcDbCircle
10
-22.446881599213789
20
25.02362422723111
30
0
40
5.0000000000000107
100
AcDbArc
50
6.2280588100776431
51
56.104024216561072
0
ARC
5
168
100
AcDbEntity
8
0
100
AcDbCircle
10
-6.7917957343005551
20
20.000000372529033
30
0
40
5
100
AcDbArc
50
89.999999999999986
51
138.1896882860479
0
ARC
5
169
100
AcDbEntity
8
0
100
AcDbCircle
10
-13.5
20
26
30
0
40
3.9999999999999973
100
AcDbArc
50
186.22805881007753
51
318.18968828604784
0
ARC
5
170
100
AcDbEntity
8
0
100
AcDbCircle
10
62.078708602147216
20
72.854571204326533
30
0
40
3.0000000000000018
100
AcDbArc
50
-56.104024216561427
51
61.523582919684024
0
ENDSEC
0
SECTION
2
OBJECTS
0
DICTIONARY
5
C
100
AcDbDictionary
3
ACAD_GROUP
350
D
3
ACAD_MLINESTYLE
350
17
0
DICTIONARY
5
D
100
AcDbDictionary
0
DICTIONARY
5
1A
330
C
100
AcDbDictionary
0
DICTIONARY
5
17
100
AcDbDictionary
0
ENDSEC
0
EOF
