0
SECTION
2
HEADER
9
$INSUNITS
70
4
9
$ACADVER
1
AC1014
9
$HANDSEED
5
FFFF
0
ENDSEC
0
SECTION
2
TABLES
0
TABLE
2
VPORT
5
8
100
AcDbSymbolTable
0
ENDTAB
0
TABLE
2
LTYPE
5
5
100
AcDbSymbolTable
0
LTYPE
5
14
100
AcDbSymbolTableRecord
100
AcDbLinetypeTableRecord
2
BYBLOCK
70
0
0
LTYPE
5
15
100
AcDbSymbolTableRecord
100
AcDbLinetypeTableRecord
2
BYLAYER
70
0
0
ENDTAB
0
TABLE
2
LAYER
5
2
100
AcDbSymbolTable
70
2
0
LAYER
5
50
100
AcDbSymbolTableRecord
100
AcDbLayerTableRecord
2
0
70
0
6
CONTINUOUS
0
ENDTAB
0
TABLE
2
STYLE
5
3
100
AcDbSymbolTable
70
1
0
STYLE
5
11
100
AcDbSymbolTableRecord
100
AcDbTextStyleTableRecord
2
STANDARD
70
0
0
ENDTAB
0
TABLE
2
VIEW
5
6
100
AcDbSymbolTable
70
0
0
ENDTAB
0
TABLE
2
UCS
5
7
100
AcDbSymbolTable
70
0
0
ENDTAB
0
TABLE
2
APPID
5
9
100
AcDbSymbolTable
70
2
0
APPID
5
12
100
AcDbSymbolTableRecord
100
AcDbRegAppTableRecord
2
ACAD
70
0
0
ENDTAB
0
TABLE
2
DIMSTYLE
5
A
100
AcDbSymbolTable
70
1
0
ENDTAB
0
TABLE
2
BLOCK_RECORD
5
1
100
AcDbSymbolTable
70
1
0
BLOCK_RECORD
5
1F
100
AcDbSymbolTableRecord
100
AcDbBlockTableRecord
2
*MODEL_SPACE
0
BLOCK_RECORD
5
1B
100
AcDbSymbolTableRecord
100
AcDbBlockTableRecord
2
*PAPER_SPACE
0
ENDTAB
0
ENDSEC
0
SECTION
2
BLOCKS
0
BLOCK
5
20
100
AcDbEntity
100
AcDbBlockBegin
2
*MODEL_SPACE
0
ENDBLK
5
21
100
AcDbEntity
100
AcDbBlockEnd
0
BLOCK
5
1C
100
AcDbEntity
100
AcDbBlockBegin
2
*PAPER_SPACE
0
ENDBLK
5
1D
100
AcDbEntity
100
AcDbBlockEnd
0
ENDSEC
0
SECTION
2
ENTITIES
0
ARC
5
100
100
AcDbEntity
8
0
100
AcDbCircle
10
-1.5681900222830336e-14
20
-9.9999999999069704
30
0
40
1.5000000223517507
100
AcDbArc
50
180.00000566329368
51
359.99999433670632
0
LWPOLYLINE
5
101
100
AcDbEntity
8
0
100
AcDbPolyline
90
4
70
1
43
0.0
10
7.5000000894069618
20
39.500000610947609
10
7.5000000894069512
20
31.500000447034825
42
-0.99999999999999989
10
4.5000000894069538
20
31.500000447034825
10
4.5000000894069547
20
39.500000610947616
42
-0.99999999999999989
0
CIRCLE
5
102
100
AcDbEntity
8
0
100
AcDbCircle
10
-13.500000000000039
20
25.999999999999979
30
0
40
2.25
0
CIRCLE
5
103
100
AcDbEntity
8
0
100
AcDbCircle
10
13.5
20
40
30
0
40
1.5000000000000013
0
LWPOLYLINE
5
104
100
AcDbEntity
8
0
100
AcDbPolyline
90
4
70
1
43
0.0
10
-1.5000000223517607
20
9.999999999999952
42
-0.99999999999999989
10
1.5000000223517274
20
9.999999999999952
10
1.5000000223517274
20
9.0000001341104028
42
-0.99999999999999989
10
-1.5000000223517607
20
9.0000001341104028
0
ARC
5
105
100
AcDbEntity
8
0
100
AcDbCircle
10
-20.250000000000053
20
-9.0050020016016834
30
0
40
5.000000000000008
100
AcDbArc
50
-51.317812546510545
51
0
0
LWPOLYLINE
5
106
100
AcDbEntity
8
0
100
AcDbPolyline
90
4
70
1
43
0.0
10
1.4999999999999825
20
29.000000432133657
42
-0.99999999999999989
10
-1.5000000000000213
20
29.000000432133657
10
-1.5000000000000213
20
42.5000006556511
42
-0.99999999999999989
10
1.4999999999999811
20
42.5000006556511
0
CIRCLE
5
107
100
AcDbEntity
8
0
100
AcDbCircle
10
-13.500000000000039
20
40
30
0
40
1.5000000000000013
0
SPLINE
5
108
100
AcDbEntity
8
0
100
AcDbSpline
70
1064
71
5
72
21
73
15
74
0
42
0.000000001
43
0.0000000001
44
0.0000000001
40
0.0044747637347926864
40
0.0044747637347926864
40
0.0044747637347926864
40
0.0044747637347926864
40
0.0044747637347926864
40
0.0044747637347926864
40
0.10000000000000001
40
0.20000000000000001
40
0.30000000000000004
40
0.40000000000000002
40
0.5
40
0.59999999999999998
40
0.69999999999999996
40
0.79999999999999982
40
0.8999999999999998
40
0.99552523626521539
40
0.99552523626521539
40
0.99552523626521539
40
0.99552523626521539
40
0.99552523626521539
40
0.99552523626521539
10
13.331663929876774
20
43.495949508716542
30
0
10
12.615295271940624
20
43.483625910921361
30
0
10
11.200203439255464
20
43.566957444268397
30
0
10
9.2194281059687881
20
44.026420147975358
30
0
10
6.8717216441688356
20
45.206179857384249
30
0
10
4.3470117158390318
20
47.051545496171414
30
0
10
2.0971743340958851
20
48.584889983263189
30
0
10
-6.2841980201192207e-15
20
49.189607182388038
30
0
10
-2.0971743340959628
20
48.584889983257504
30
0
10
-4.347011715839205
20
47.051545496162348
30
0
10
-6.8717216441691171
20
45.206179857376299
30
0
10
-9.2194281059690475
20
44.026420147971372
30
0
10
-11.200203439255713
20
43.566957444267615
30
0
10
-12.615295271940909
20
43.48362591092129
30
0
10
-13.331663929877116
20
43.495949508716542
30
0
0
CIRCLE
5
109
100
AcDbEntity
8
0
100
AcDbCircle
10
-10.000000000000034
20
9.9999999999999538
30
0
40
1.5000000000000013
0
LWPOLYLINE
5
110
100
AcDbEntity
8
0
100
AcDbPolyline
90
4
70
1
43
0.0
10
-6.5000001192093135
20
-21.500000342726807
42
-0.99999999999999989
10
-9.500000119209318
20
-21.500000342726807
10
-9.500000119209318
20
-18.500000253319836
42
-0.99999999999999989
10
-6.5000001192093135
20
-18.500000253319829
0
LINE
5
111
100
AcDbEntity
8
0
100
AcDbLine
10
1.5000000223517276
20
-10.00000014901169
30
0
11
1.5000000223517296
21
-9.0000001341105254
31
0
0
LWPOLYLINE
5
112
100
AcDbEntity
8
0
100
AcDbPolyline
90
4
70
1
43
0.0
10
1.4999999999999902
20
-23.500000372529122
42
-0.99999999999999989
10
-1.5000000000000142
20
-23.500000372529122
10
-1.5000000000000155
20
-17.500000238418675
42
-0.99999999999999989
10
1.4999999999999889
20
-17.500000238418668
0
CIRCLE
5
113
100
AcDbEntity
8
0
100
AcDbCircle
10
10.000000000000002
20
-10.000000000000078
30
0
40
1.5000000000000024
0
LWPOLYLINE
5
114
100
AcDbEntity
8
0
100
AcDbPolyline
90
4
70
1
43
0.0
10
9.5000001192092931
20
-21.500000342726807
42
-0.99999999999999989
10
6.500000119209286
20
-21.500000342726807
10
6.500000119209286
20
-18.500000253319836
42
-0.99999999999999989
10
9.5000001192092931
20
-18.500000253319829
0
LWPOLYLINE
5
115
100
AcDbEntity
8
0
100
AcDbPolyline
90
4
70
1
43
0.0
10
-4.5000000894069947
20
31.500000447034836
42
-0.99999999999999989
10
-7.5000000894069974
20
31.500000447034825
10
-7.5000000894069867
20
39.500000610947602
42
-0.99999999999999989
10
-4.5000000894069947
20
39.500000610947609
0
ARC
5
116
100
AcDbEntity
8
0
100
AcDbCircle
10
-1.4710455076283324e-14
20
-9.0000001341105254
30
0
40
1.5000000223517442
100
AcDbArc
50
0
51
180
0
ARC
5
117
100
AcDbEntity
8
0
100
AcDbCircle
10
-13.500000000000039
20
40
30
0
40
3.5000000000000053
100
AcDbArc
50
90
51
188.49074020153867
0
LINE
5
118
100
AcDbEntity
8
0
100
AcDbLine
10
-15.250000000000048
20
9.0050020016015573
30
0
11
-15.250000000000043
21
-9.0050020016016834
31
0
0
LINE
5
119
100
AcDbEntity
8
0
100
AcDbLine
10
-1.5000000223517591
20
-9.0000001341105254
30
0
11
-1.5000000223517591
21
-10.000000149011687
31
0
0
ARC
5
120
100
AcDbEntity
8
0
100
AcDbCircle
10
-13.500000000000039
20
25.999999999999979
30
0
40
3.9999999999999973
100
AcDbArc
50
149.92952874836521
51
180
0
CIRCLE
5
121
100
AcDbEntity
8
0
100
AcDbCircle
10
15.250000000000012
20
-15.250000000000091
30
0
40
1.5000000000000036
0
LWPOLYLINE
5
122
100
AcDbEntity
8
0
100
AcDbPolyline
90
6
70
1
43
0.0
10
4.3301270834461043
20
-2.5000000372529692
10
-1.4432899320127035e-14
20
-5.0000000745058761
10
-4.3301270834461372
20
-2.5000000372529647
10
-4.3301270834461363
20
2.5000000372528475
10
-1.4432899320127035e-14
20
5.0000000745057527
10
4.3301270834461052
20
2.5000000372528457
0
CIRCLE
5
123
100
AcDbEntity
8
0
100
AcDbCircle
10
-15.250000000000039
20
-15.250000000000092
30
0
40
1.5000000000000036
0
CIRCLE
5
124
100
AcDbEntity
8
0
100
AcDbCircle
10
-15.250000000000048
20
15.249999999999966
30
0
40
1.5000000000000036
0
LWPOLYLINE
5
125
100
AcDbEntity
8
0
100
AcDbPolyline
90
4
70
1
43
0.0
10
-8.5000000000000284
20
-3.5000000745058757
42
-0.99999999999999989
10
-11.500000000000036
20
-3.5000000745058757
10
-11.50000000000003
20
3.5000000745057513
42
-0.99999999999999989
10
-8.5000000000000302
20
3.50000007450575
0
LWPOLYLINE
5
126
100
AcDbEntity
8
0
100
AcDbPolyline
90
4
70
1
43
0.0
10
11.500000000000002
20
-3.5000000745058686
42
-0.99999999999999989
10
8.4999999999999982
20
-3.5000000745058717
10
8.4999999999999876
20
3.5000000745057518
42
-0.99999999999999989
10
11.500000000000002
20
3.5000000745057518
0
SPLINE
5
127
100
AcDbEntity
8
0
100
AcDbSpline
70
1064
71
5
72
12
73
6
74
0
42
0.000000001
43
0.0000000001
44
0.0000000001
40
0.99552523626521883
40
0.99552523626521883
40
0.99552523626521883
40
0.99552523626521883
40
0.99552523626521883
40
0.99552523626521883
40
1
40
1
40
1
40
1
40
1
40
1
10
-13.331663929877235
20
43.495949508716542
30
0
10
-13.365221350058508
20
43.496526792695668
30
0
10
-13.398833662848046
20
43.497220455284193
30
0
10
-13.432500873936634
20
43.498030534248542
30
0
10
-13.466222986269223
20
43.498957048953514
30
0
10
-13.500000000000039
20
43.500000000000007
30
0
0
CIRCLE
5
128
100
AcDbEntity
8
0
100
AcDbCircle
10
-10.000000000000027
20
-10.00000000000008
30
0
40
1.5000000000000013
0
ARC
5
129
100
AcDbEntity
8
0
100
AcDbCircle
10
-20.250000000000053
20
9.0050020016015573
30
0
40
5.0000000000000089
100
AcDbArc
50
0
51
51.31781254651051
0
LINE
5
130
100
AcDbEntity
8
0
100
AcDbLine
10
-17.500000000000039
20
-18.631937314617275
30
0
11
-17.500000000000039
21
-26.000000000000107
31
0
0
SPLINE
5
131
100
AcDbEntity
8
0
100
AcDbSpline
70
1064
71
5
72
21
73
15
74
0
42
0.000000001
43
0.0000000001
44
0.0000000001
40
0
40
0
40
0
40
0
40
0
40
0
40
0.10000000000000001
40
0.20000000000000001
40
0.30000000000000004
40
0.40000000000000002
40
0.5
40
0.59999999999999998
40
0.69999999999999996
40
0.79999999999999982
40
0.8999999999999998
40
1
40
1
40
1
40
1
40
1
40
1
10
-10.000000000000027
20
-40.000000000000135
30
0
10
-10.000000026055051
20
-39.300590789456038
30
0
10
-9.9782746833715805
20
-38.021595807292606
30
0
10
-9.8805186152212165
20
-36.462533754807168
30
0
10
-9.629695908916208
20
-35.042756774481923
30
0
10
-9.1614238926573037
20
-34.047462389631221
30
0
10
-8.5806722545592891
20
-33.455582736592675
30
0
10
-7.9040319132341388
20
-32.927700630405745
30
0
10
-7.0972705482358034
20
-32.263963657588377
30
0
10
-6.0588978530128612
20
-31.477142313250145
30
0
10
-4.6519168216162496
20
-30.698293039831231
30
0
10
-3.114671572383382
20
-30.229922830486888
30
0
10
-1.6754097973114999
20
-30.041805255219749
30
0
10
-0.58096125617791705
20
-30.00000044703495
30
0
10
-1.2077348709681363e-14
20
-30.000000447034946
30
0
0
ARC
5
132
100
AcDbEntity
8
0
100
AcDbCircle
10
-15.250000000000039
20
-15.250000000000092
30
0
40
3.0000000000000089
100
AcDbArc
50
128.68218745348955
51
205.00783323468514
0
ARC
5
133
100
AcDbEntity
8
0
100
AcDbCircle
10
-22.500000000000053
20
-18.631937314617275
30
0
40
5.0000000000000089
100
AcDbArc
50
0
51
25.00783323468514
0
SPLINE
5
134
100
AcDbEntity
8
0
100
AcDbSpline
70
1064
71
5
72
12
73
6
74
0
42
0.000000001
43
0.0000000001
44
0.0000000001
40
0
40
0
40
0
40
0
40
0
40
0
40
0.004474763734789374
40
0.004474763734789374
40
0.004474763734789374
40
0.004474763734789374
40
0.004474763734789374
40
0.004474763734789374
10
13.5
20
43.500000000000007
30
0
10
13.466222986269125
20
43.498957048953493
30
0
10
13.432500873936473
20
43.498030534248542
30
0
10
13.398833662847824
20
43.497220455284179
30
0
10
13.365221350058222
20
43.496526792695647
30
0
10
13.331663929876893
20
43.495949508716542
30
0
0
ARC
5
135
100
AcDbEntity
8
0
100
AcDbCircle
10
22.500000000000014
20
18.63193731461714
30
0
40
5.0000000000000355
100
AcDbArc
50
180
51
205.00783323468502
0
ARC
5
136
100
AcDbEntity
8
0
100
AcDbCircle
10
13.500000000000014
20
-40.000000000000135
30
0
40
3.5000000000000053
100
AcDbArc
50
-180
51
0
0
ARC
5
137
100
AcDbEntity
8
0
100
AcDbCircle
10
-22.500000000000053
20
18.631937314617115
30
0
40
5.0000000000000266
100
AcDbArc
50
-25.007833234684863
51
0
0
ARC
5
138
100
AcDbEntity
8
0
100
AcDbCircle
10
20.25
20
9.0050020016015448
30
0
40
5.000000000000008
100
AcDbArc
50
128.68218745348918
51
180
0
ARC
5
139
100
AcDbEntity
8
0
100
AcDbCircle
10
-22.000000000000085
20
-28.95803989154988
30
0
40
5.0000000000000711
100
AcDbArc
50
0
51
19.188136453720446
0
ARC
5
140
100
AcDbEntity
8
0
100
AcDbCircle
10
-15.250000000000021
20
15.249999999999941
30
0
40
3.0000000000000018
100
AcDbArc
50
154.99216676531472
51
231.31781254651003
0
LINE
5
141
100
AcDbEntity
8
0
100
AcDbLine
10
17.000000000000011
20
27.936491673103685
30
0
11
17.000000000000007
21
40
31
0
0
ARC
5
142
100
AcDbEntity
8
0
100
AcDbCircle
10
13.500000000000005
20
25.999999999999972
30
0
40
4.0000000000000036
100
AcDbArc
50
0
51
28.955024371859874
0
ARC
5
143
100
AcDbEntity
8
0
100
AcDbCircle
10
15.250000000000012
20
-15.250000000000091
30
0
40
3.0000000000000018
100
AcDbArc
50
-25.007833234685069
51
51.317812546510574
0
LINE
5
144
100
AcDbEntity
8
0
100
AcDbLine
10
17.500000000000007
20
25.999999999999972
30
0
11
17.500000000000004
21
18.631937314617151
31
0
0
ARC
5
145
100
AcDbEntity
8
0
100
AcDbCircle
10
20.250000000000018
20
-9.0050020016016816
30
0
40
5.0000000000000089
100
AcDbArc
50
180
51
231.31781254651054
0
LINE
5
146
100
AcDbEntity
8
0
100
AcDbLine
10
-17.000000000000039
20
-40.000000000000135
30
0
11
-17.000000000000046
21
-28.958039891549916
31
0
0
ARC
5
147
100
AcDbEntity
8
0
100
AcDbCircle
10
22.500000000000018
20
-18.631937314617261
30
0
40
5.0000000000000071
100
AcDbArc
50
154.99216676531486
51
180
0
ARC
5
148
100
AcDbEntity
8
0
100
AcDbCircle
10
15.249999999999986
20
15.249999999999948
30
0
40
3.0000000000000018
100
AcDbArc
50
-51.317812546509998
51
25.007833234685382
0
LINE
5
149
100
AcDbEntity
8
0
100
AcDbLine
10
15.250000000000007
20
-9.0050020016016799
30
0
11
15.250000000000007
21
9.0050020016015626
31
0
0
ARC
5
150
100
AcDbEntity
8
0
100
AcDbCircle
10
13.500000000000007
20
-26.000000000000099
30
0
40
4.0000000000000071
100
AcDbArc
50
340.81186354627903
51
360
0
ARC
5
151
100
AcDbEntity
8
0
100
AcDbCircle
10
13.49999999999998
20
39.999999999999936
30
0
40
3.5000000000000009
100
AcDbArc
50
0
51
89.999999999999673
0
LINE
5
152
100
AcDbEntity
8
0
100
AcDbLine
10
-16.961639084790782
20
39.483226503534532
30
0
11
-16.961639084790786
21
28.004259176516104
31
0
0
SPLINE
5
153
100
AcDbEntity
8
0
100
AcDbSpline
70
1064
71
5
72
12
73
6
74
0
42
0.000000001
43
0.0000000001
44
0.0000000001
40
0
40
0
40
0
40
0
40
0
40
0
40
0.004474763734789374
40
0.004474763734789374
40
0.004474763734789374
40
0.004474763734789374
40
0.004474763734789374
40
0.004474763734789374
10
13.49999999999998
20
43.499999999999936
30
0
10
13.4662229862691
20
43.498957048953422
30
0
10
13.432500873936448
20
43.498030534248464
30
0
10
13.3988336628478
20
43.497220455284101
30
0
10
13.365221350058203
20
43.496526792695597
30
0
10
13.331663929876871
20
43.495949508716478
30
0
0
SPLINE
5
154
100
AcDbEntity
8
0
100
AcDbSpline
70
1064
71
5
72
21
73
15
74
0
42
0.000000001
43
0.0000000001
44
0.0000000001
40
-1
40
-1
40
-1
40
-1
40
-1
40
-1
40
-0.8999999999999998
40
-0.79999999999999982
40
-0.69999999999999996
40
-0.59999999999999998
40
-0.5
40
-0.40000000000000002
40
-0.30000000000000004
40
-0.20000000000000001
40
-0.10000000000000001
40
0
40
0
40
0
40
0
40
0
40
0
10
-1.207734870968137e-14
20
-30.0000004470349
30
0
10
0.58096125617789196
20
-30.000000447034907
30
0
10
1.6754097973114723
20
-30.041805255219707
30
0
10
3.114671572383354
20
-30.229922830486835
30
0
10
4.6519168216162203
20
-30.698293039831185
30
0
10
6.0588978530128266
20
-31.477142313250091
30
0
10
7.0972705482357688
20
-32.263963657588327
30
0
10
7.9040319132341041
20
-32.927700630405695
30
0
10
8.5806722545592535
20
-33.455582736592611
30
0
10
9.1614238926572664
20
-34.047462389631171
30
0
10
9.6296959089161689
20
-35.042756774481852
30
0
10
9.8805186152211775
20
-36.462533754807112
30
0
10
9.978274683371545
20
-38.021595807292563
30
0
10
10.000000026055016
20
-39.300590789455967
30
0
10
9.9999999999999876
20
-40.000000000000064
30
0
0
ARC
5
155
100
AcDbEntity
8
0
100
AcDbCircle
10
-13.500000000000014
20
-40.000000000000064
30
0
40
3.5000000000000009
100
AcDbArc
50
180
51
360
0
SPLINE
5
156
100
AcDbEntity
8
0
100
AcDbSpline
70
1064
71
5
72
12
73
6
74
0
42
0.000000001
43
0.0000000001
44
0.0000000001
40
0.99552523626521883
40
0.99552523626521883
40
0.99552523626521883
40
0.99552523626521883
40
0.99552523626521883
40
0.99552523626521883
40
1
40
1
40
1
40
1
40
1
40
1
10
-13.331663929877223
20
43.495949508716478
30
0
10
-13.365221350058489
20
43.496526792695597
30
0
10
-13.398833662848029
20
43.497220455284122
30
0
10
-13.432500873936615
20
43.498030534248493
30
0
10
-13.466222986269205
20
43.498957048953429
30
0
10
-13.500000000000021
20
43.499999999999936
30
0
0
ARC
5
157
100
AcDbEntity
8
0
100
AcDbCircle
10
-13.500000000000016
20
-26.000000000000068
30
0
40
3.9999999999999991
100
AcDbArc
50
180
51
199.18813645372126
0
LINE
5
158
100
AcDbEntity
8
0
100
AcDbLine
10
-17.500000000000046
20
25.999999999999972
30
0
11
-17.500000000000046
21
18.63193731461714
31
0
0
ARC
5
159
100
AcDbEntity
8
0
100
AcDbCircle
10
22.000000000000011
20
-28.958039891549859
30
0
40
5.0000000000000169
100
AcDbArc
50
160.8118635462796
51
180
0
CIRCLE
5
160
100
AcDbEntity
8
0
100
AcDbCircle
10
15.249999999999986
20
15.249999999999948
30
0
40
1.5000000000000013
0
CIRCLE
5
161
100
AcDbEntity
8
0
100
AcDbCircle
10
13.499999999999986
20
25.999999999999936
30
0
40
2.25
0
CIRCLE
5
162
100
AcDbEntity
8
0
100
AcDbCircle
10
13.499999999999988
20
-26.000000000000068
30
0
40
2.25
0
LINE
5
163
100
AcDbEntity
8
0
100
AcDbLine
10
17.500000000000018
20
-26.000000000000107
30
0
11
17.500000000000011
21
-18.631937314617268
31
0
0
CIRCLE
5
164
100
AcDbEntity
8
0
100
AcDbCircle
10
-13.500000000000014
20
-40.000000000000064
30
0
40
1.4999999999999991
0
CIRCLE
5
165
100
AcDbEntity
8
0
100
AcDbCircle
10
9.999999999999984
20
9.9999999999999396
30
0
40
1.5000000000000002
0
LINE
5
166
100
AcDbEntity
8
0
100
AcDbLine
10
17.000000000000021
20
-40.000000000000135
30
0
11
17.000000000000014
21
-28.958039891549909
31
0
0
CIRCLE
5
167
100
AcDbEntity
8
0
100
AcDbCircle
10
13.499999999999988
20
-40.000000000000064
30
0
40
1.4999999999999991
0
CIRCLE
5
168
100
AcDbEntity
8
0
100
AcDbCircle
10
-13.500000000000016
20
-26.000000000000068
30
0
40
2.25
0
ENDSEC
0
SECTION
2
OBJECTS
0
DICTIONARY
5
C
100
AcDbDictionary
3
ACAD_GROUP
350
D
3
ACAD_MLINESTYLE
350
17
0
DICTIONARY
5
D
100
AcDbDictionary
0
DICTIONARY
5
1A
330
C
100
AcDbDictionary
0
DICTIONARY
5
17
100
AcDbDictionary
0
ENDSEC
0
EOF
