0
SECTION
2
HEADER
9
$INSUNITS
70
4
9
$ACADVER
1
AC1014
9
$HANDSEED
5
FFFF
0
ENDSEC
0
SECTION
2
TABLES
0
TABLE
2
VPORT
5
8
100
AcDbSymbolTable
0
ENDTAB
0
TABLE
2
LTYPE
5
5
100
AcDbSymbolTable
0
LTYPE
5
14
100
AcDbSymbolTableRecord
100
AcDbLinetypeTableRecord
2
BYBLOCK
70
0
0
LTYPE
5
15
100
AcDbSymbolTableRecord
100
AcDbLinetypeTableRecord
2
BYLAYER
70
0
0
ENDTAB
0
TABLE
2
LAYER
5
2
100
AcDbSymbolTable
70
2
0
LAYER
5
50
100
AcDbSymbolTableRecord
100
AcDbLayerTableRecord
2
0
70
0
6
CONTINUOUS
0
ENDTAB
0
TABLE
2
STYLE
5
3
100
AcDbSymbolTable
70
1
0
STYLE
5
11
100
AcDbSymbolTableRecord
100
AcDbTextStyleTableRecord
2
STANDARD
70
0
0
ENDTAB
0
TABLE
2
VIEW
5
6
100
AcDbSymbolTable
70
0
0
ENDTAB
0
TABLE
2
UCS
5
7
100
AcDbSymbolTable
70
0
0
ENDTAB
0
TABLE
2
APPID
5
9
100
AcDbSymbolTable
70
2
0
APPID
5
12
100
AcDbSymbolTableRecord
100
AcDbRegAppTableRecord
2
ACAD
70
0
0
ENDTAB
0
TABLE
2
DIMSTYLE
5
A
100
AcDbSymbolTable
70
1
0
ENDTAB
0
TABLE
2
BLOCK_RECORD
5
1
100
AcDbSymbolTable
70
1
0
BLOCK_RECORD
5
1F
100
AcDbSymbolTableRecord
100
AcDbBlockTableRecord
2
*MODEL_SPACE
0
BLOCK_RECORD
5
1B
100
AcDbSymbolTableRecord
100
AcDbBlockTableRecord
2
*PAPER_SPACE
0
ENDTAB
0
ENDSEC
0
SECTION
2
BLOCKS
0
BLOCK
5
20
100
AcDbEntity
100
AcDbBlockBegin
2
*MODEL_SPACE
0
ENDBLK
5
21
100
AcDbEntity
100
AcDbBlockEnd
0
BLOCK
5
1C
100
AcDbEntity
100
AcDbBlockBegin
2
*PAPER_SPACE
0
ENDBLK
5
1D
100
AcDbEntity
100
AcDbBlockEnd
0
ENDSEC
0
SECTION
2
ENTITIES
0
ARC
5
100
100
AcDbEntity
8
0
100
AcDbCircle
10
13.5
20
-26
30
0
40
4.0000000000000044
100
AcDbArc
50
-156.2500177156931
51
56.826640872142058
0
CIRCLE
5
101
100
AcDbEntity
8
0
100
AcDbCircle
10
10
20
-10
30
0
40
1.4999999999999991
0
LINE
5
102
100
AcDbEntity
8
0
100
AcDbLine
10
-14.000000208616258
20
-6.1080721182348725
30
0
11
-14.000000208616258
21
6.1080721182348725
31
0
0
CIRCLE
5
103
100
AcDbEntity
8
0
100
AcDbCircle
10
10
20
10
30
0
40
1.4999999999999991
0
SPLINE
5
104
100
AcDbEntity
8
0
100
AcDbSpline
70
1064
71
5
72
21
73
15
74
0
42
0.000000001
43
0.0000000001
44
0.0000000001
40
0
40
0
40
0
40
0
40
0
40
0
40
0.10000000000000001
40
0.20000000000000001
40
0.30000000000000004
40
0.40000000000000002
40
0.5
40
0.59999999999999998
40
0.69999999999999996
40
0.79999999999999982
40
0.8999999999999998
40
1
40
1
40
1
40
1
40
1
40
1
10
0
20
-22.108072356653455
30
0
10
0.35197312092066579
20
-22.108072356653455
30
0
10
1.0255345556155455
20
-22.112193369493017
30
0
10
1.9447284882909399
20
-22.130738493086554
30
0
10
3.0007681757997346
20
-22.185867855809125
30
0
10
4.105469441275825
20
-22.337650116360631
30
0
10
5.0742775560766713
20
-22.612431014877785
30
0
10
5.97887579099429
20
-23.04737237282886
30
0
10
6.8648763755195175
20
-23.664424118014068
30
0
10
7.7321243076388235
20
-24.454471303082155
30
0
10
8.5510780017922663
20
-25.39161949415741
30
0
10
9.1334662801433595
20
-26.234660894739061
30
0
10
9.5113434910975432
20
-26.908110898941562
30
0
10
9.7344236534186237
20
-27.373891736005262
30
0
10
9.8387535850498082
20
-27.610985627546398
30
0
0
ARC
5
105
100
AcDbEntity
8
0
100
AcDbCircle
10
13.499999999999998
20
26
30
0
40
4.0000000000000036
100
AcDbArc
50
-56.826640872142058
51
156.25001771569308
0
LWPOLYLINE
5
106
100
AcDbEntity
8
0
100
AcDbPolyline
90
4
70
1
43
0.0
10
1
20
-16.999989971518453
42
-0.99999999999999989
10
-1.0000000000000004
20
-16.999989971518453
10
-1.0000000000000009
20
-7.0000001043081284
42
-0.99999999999999989
10
1.0000000000000009
20
-7.0000001043081284
0
SPLINE
5
107
100
AcDbEntity
8
0
100
AcDbSpline
70
1064
71
5
72
21
73
15
74
0
42
0.000000001
43
0.0000000001
44
0.0000000001
40
0
40
0
40
0
40
0
40
0
40
0
40
0.10000000000000001
40
0.20000000000000001
40
0.30000000000000004
40
0.40000000000000002
40
0.5
40
0.59999999999999998
40
0.69999999999999996
40
0.79999999999999982
40
0.8999999999999998
40
1
40
1
40
1
40
1
40
1
40
1
10
0
20
-22.108072356653455
30
0
10
-0.35197312092066579
20
-22.108072356653455
30
0
10
-1.0255345556155455
20
-22.112193369493017
30
0
10
-1.9447284882909399
20
-22.130738493086554
30
0
10
-3.0007681757997346
20
-22.185867855809125
30
0
10
-4.105469441275825
20
-22.337650116360631
30
0
10
-5.0742775560766713
20
-22.612431014877785
30
0
10
-5.97887579099429
20
-23.04737237282886
30
0
10
-6.8648763755195175
20
-23.664424118014068
30
0
10
-7.7321243076388235
20
-24.454471303082155
30
0
10
-8.5510780017922663
20
-25.39161949415741
30
0
10
-9.1334662801433595
20
-26.234660894739061
30
0
10
-9.5113434910975432
20
-26.908110898941562
30
0
10
-9.7344236534186237
20
-27.373891736005262
30
0
10
-9.8387535850498082
20
-27.610985627546398
30
0
0
ARC
5
108
100
AcDbEntity
8
0
100
AcDbCircle
10
-13.500000000000005
20
-25.999999999999996
30
0
40
4.0000000000000036
100
AcDbArc
50
123.17335912785791
51
336.25001771569305
0
CIRCLE
5
109
100
AcDbEntity
8
0
100
AcDbCircle
10
13.500000000000048
20
-25.999999105930343
30
0
40
1.4999999999999991
0
LWPOLYLINE
5
110
100
AcDbEntity
8
0
100
AcDbPolyline
90
4
70
1
43
0.0
10
-1.0000000000000004
20
16.999989971518453
42
-0.99999999999999989
10
1
20
16.999989971518453
10
0.99999999999999978
20
7.0000001043081284
42
-0.99999999999999989
10
-1.0000000000000004
20
7.0000001043081284
0
SPLINE
5
111
100
AcDbEntity
8
0
100
AcDbSpline
70
1064
71
5
72
21
73
15
74
0
42
0.000000001
43
0.0000000001
44
0.0000000001
40
0
40
0
40
0
40
0
40
0
40
0
40
0.10000000000000001
40
0.20000000000000001
40
0.30000000000000004
40
0.40000000000000002
40
0.5
40
0.59999999999999998
40
0.69999999999999996
40
0.79999999999999982
40
0.8999999999999998
40
1
40
1
40
1
40
1
40
1
40
1
10
-15.688696372923406
20
-22.651924704078983
30
0
10
-15.338151069104812
20
-22.422766616518071
30
0
10
-14.697256520818049
20
-21.933780865574764
30
0
10
-13.91649222482882
20
-21.108299173515395
30
0
10
-13.218525310931689
20
-19.839073607987064
30
0
10
-12.819638842352605
20
-18.055242635014679
30
0
10
-12.771206176339176
20
-16.176813985176778
30
0
10
-12.946222197603205
20
-14.302133113243469
30
0
10
-13.229655993412429
20
-12.504405031560148
30
0
10
-13.533741716105922
20
-10.805443427843775
30
0
10
-13.794885297873707
20
-9.1920567117965994
30
0
10
-13.934359014756517
20
-7.9465189113458212
30
0
10
-13.988065171300885
20
-7.0243770529072691
30
0
10
-14.000000208616258
20
-6.4129514984585523
30
0
10
-14.000000208616258
20
-6.1080721182348716
30
0
0
SPLINE
5
112
100
AcDbEntity
8
0
100
AcDbSpline
70
1064
71
5
72
21
73
15
74
0
42
0.000000001
43
0.0000000001
44
0.0000000001
40
0
40
0
40
0
40
0
40
0
40
0
40
0.10000000000000001
40
0.20000000000000001
40
0.30000000000000004
40
0.40000000000000002
40
0.5
40
0.59999999999999998
40
0.69999999999999996
40
0.79999999999999982
40
0.8999999999999998
40
1
40
1
40
1
40
1
40
1
40
1
10
15.688696372923406
20
22.651924704078983
30
0
10
15.338151069104812
20
22.422766616518079
30
0
10
14.697256520818049
20
21.933780865573414
30
0
10
13.91649222482882
20
21.108299173507149
30
0
10
13.218525310931689
20
19.839073607970814
30
0
10
12.819638842352605
20
18.055242634997974
30
0
10
12.771206176339176
20
16.176813985167193
30
0
10
12.946222197603205
20
14.302133113243469
30
0
10
13.229655993412429
20
12.504405031566153
30
0
10
13.533741716105922
20
10.805443427850474
30
0
10
13.794885297873707
20
9.1920567118005092
30
0
10
13.934359014756517
20
7.9465189113469314
30
0
10
13.988065171300885
20
7.0243770529074023
30
0
10
14.000000208616258
20
6.4129514984585523
30
0
10
14.000000208616258
20
6.1080721182348716
30
0
0
SPLINE
5
113
100
AcDbEntity
8
0
100
AcDbSpline
70
1064
71
5
72
21
73
15
74
0
42
0.000000001
43
0.0000000001
44
0.0000000001
40
0
40
0
40
0
40
0
40
0
40
0
40
0.10000000000000001
40
0.20000000000000001
40
0.30000000000000004
40
0.40000000000000002
40
0.5
40
0.59999999999999998
40
0.69999999999999996
40
0.79999999999999982
40
0.8999999999999998
40
1
40
1
40
1
40
1
40
1
40
1
10
-15.688696372923406
20
22.651924704078983
30
0
10
-15.338151069104812
20
22.422766616518079
30
0
10
-14.697256520818049
20
21.933780865573414
30
0
10
-13.91649222482882
20
21.108299173507149
30
0
10
-13.218525310931689
20
19.839073607970814
30
0
10
-12.819638842352605
20
18.055242634997974
30
0
10
-12.771206176339176
20
16.176813985167193
30
0
10
-12.946222197603205
20
14.302133113243469
30
0
10
-13.229655993412429
20
12.504405031566153
30
0
10
-13.533741716105922
20
10.805443427850474
30
0
10
-13.794885297873707
20
9.1920567118005092
30
0
10
-13.934359014756517
20
7.9465189113469314
30
0
10
-13.988065171300885
20
7.0243770529074023
30
0
10
-14.000000208616258
20
6.4129514984585523
30
0
10
-14.000000208616258
20
6.1080721182348716
30
0
0
CIRCLE
5
114
100
AcDbEntity
8
0
100
AcDbCircle
10
-10
20
-10
30
0
40
1.4999999999999991
0
CIRCLE
5
115
100
AcDbEntity
8
0
100
AcDbCircle
10
-10
20
10
30
0
40
1.4999999999999991
0
SPLINE
5
116
100
AcDbEntity
8
0
100
AcDbSpline
70
1064
71
5
72
21
73
15
74
0
42
0.000000001
43
0.0000000001
44
0.0000000001
40
-1
40
-1
40
-1
40
-1
40
-1
40
-1
40
-0.8999999999999998
40
-0.79999999999999982
40
-0.69999999999999996
40
-0.59999999999999998
40
-0.5
40
-0.40000000000000002
40
-0.30000000000000004
40
-0.20000000000000001
40
-0.10000000000000001
40
0
40
0
40
0
40
0
40
0
40
0
10
-9.8387535850498082
20
27.610985627546398
30
0
10
-9.7344236534186237
20
27.37389173600527
30
0
10
-9.5113434910975432
20
26.908110898941551
30
0
10
-9.1334662801433595
20
26.234660894739079
30
0
10
-8.5510780017922663
20
25.391619494157872
30
0
10
-7.7321243076388235
20
24.45447130308348
30
0
10
-6.8648763755195175
20
23.664424118015589
30
0
10
-5.97887579099429
20
23.047372372829106
30
0
10
-5.0742775560766713
20
22.612431014875551
30
0
10
-4.105469441275825
20
22.337650116356546
30
0
10
-3.0007681757997346
20
22.185867855805203
30
0
10
-1.9447284882909399
20
22.130738493084735
30
0
10
-1.0255345556155455
20
22.112193369492765
30
0
10
-0.35197312092066579
20
22.108072356653455
30
0
10
0
20
22.108072356653455
30
0
0
SPLINE
5
117
100
AcDbEntity
8
0
100
AcDbSpline
70
1064
71
5
72
21
73
15
74
0
42
0.000000001
43
0.0000000001
44
0.0000000001
40
-1
40
-1
40
-1
40
-1
40
-1
40
-1
40
-0.8999999999999998
40
-0.79999999999999982
40
-0.69999999999999996
40
-0.59999999999999998
40
-0.5
40
-0.40000000000000002
40
-0.30000000000000004
40
-0.20000000000000001
40
-0.10000000000000001
40
0
40
0
40
0
40
0
40
0
40
0
10
14.000000208616258
20
-6.1080721182348716
30
0
10
14.000000208616258
20
-6.4129514984585523
30
0
10
13.988065171300885
20
-7.0243770529072691
30
0
10
13.934359014756517
20
-7.9465189113458212
30
0
10
13.794885297873707
20
-9.1920567117965994
30
0
10
13.533741716105922
20
-10.805443427843775
30
0
10
13.229655993412429
20
-12.504405031560148
30
0
10
12.946222197603205
20
-14.302133113243469
30
0
10
12.771206176339176
20
-16.176813985176778
30
0
10
12.819638842352605
20
-18.055242635014679
30
0
10
13.218525310931689
20
-19.839073607987064
30
0
10
13.91649222482882
20
-21.108299173515395
30
0
10
14.697256520818049
20
-21.933780865574764
30
0
10
15.338151069104812
20
-22.422766616518071
30
0
10
15.688696372923406
20
-22.651924704078983
30
0
0
SPLINE
5
118
100
AcDbEntity
8
0
100
AcDbSpline
70
1064
71
5
72
21
73
15
74
0
42
0.000000001
43
0.0000000001
44
0.0000000001
40
0
40
0
40
0
40
0
40
0
40
0
40
0.10000000000000001
40
0.20000000000000001
40
0.30000000000000004
40
0.40000000000000002
40
0.5
40
0.59999999999999998
40
0.69999999999999996
40
0.79999999999999982
40
0.8999999999999998
40
1
40
1
40
1
40
1
40
1
40
1
10
0
20
22.108072356653455
30
0
10
0.35197312092066579
20
22.108072356653455
30
0
10
1.0255345556155455
20
22.112193369492765
30
0
10
1.9447284882909399
20
22.130738493084735
30
0
10
3.0007681757997346
20
22.185867855805203
30
0
10
4.105469441275825
20
22.337650116356546
30
0
10
5.0742775560766713
20
22.612431014875551
30
0
10
5.97887579099429
20
23.047372372829106
30
0
10
6.8648763755195175
20
23.664424118015589
30
0
10
7.7321243076388235
20
24.45447130308348
30
0
10
8.5510780017922663
20
25.391619494157872
30
0
10
9.1334662801433595
20
26.234660894739079
30
0
10
9.5113434910975432
20
26.908110898941551
30
0
10
9.7344236534186237
20
27.37389173600527
30
0
10
9.8387535850498082
20
27.610985627546398
30
0
0
CIRCLE
5
119
100
AcDbEntity
8
0
100
AcDbCircle
10
-13.499999999999964
20
-25.999999105930236
30
0
40
1.4999999999999991
0
LINE
5
120
100
AcDbEntity
8
0
100
AcDbLine
10
14.000000208616258
20
-6.1080721182348725
30
0
11
14.000000208616258
21
6.1080721182348725
31
0
0
ARC
5
121
100
AcDbEntity
8
0
100
AcDbCircle
10
-13.5
20
26
30
0
40
4.0000000000000044
100
AcDbArc
50
23.749982284306927
51
236.82664087214212
0
CIRCLE
5
122
100
AcDbEntity
8
0
100
AcDbCircle
10
13.5
20
26
30
0
40
1.4999999999999991
0
CIRCLE
5
123
100
AcDbEntity
8
0
100
AcDbCircle
10
-13.5
20
26
30
0
40
1.5000000000000013
0
ENDSEC
0
SECTION
2
OBJECTS
0
DICTIONARY
5
C
100
AcDbDictionary
3
ACAD_GROUP
350
D
3
ACAD_MLINESTYLE
350
17
0
DICTIONARY
5
D
100
AcDbDictionary
0
DICTIONARY
5
1A
330
C
100
AcDbDictionary
0
DICTIONARY
5
17
100
AcDbDictionary
0
ENDSEC
0
EOF
